<svg width="20" height="20" viewBox="0 0 20 20" fill="none" xmlns="http://www.w3.org/2000/svg">
<path d="M13.492 5.00497C13.4928 5.13647 13.4676 5.26682 13.4179 5.38856C13.3682 5.5103 13.295 5.62102 13.2024 5.71438L8.90848 10.0009L13.2024 14.2873C13.3905 14.4755 13.4961 14.7307 13.4961 14.9967C13.4961 15.2628 13.3905 15.518 13.2024 15.7062C13.0144 15.8943 12.7593 16 12.4934 16C12.2275 16 11.9725 15.8943 11.7844 15.7062L6.79147 10.7103C6.69788 10.6174 6.62359 10.5069 6.57289 10.3851C6.5222 10.2634 6.49609 10.1328 6.49609 10.0009C6.49609 9.86895 6.5222 9.73835 6.57289 9.61659C6.62359 9.49483 6.69788 9.38432 6.79148 9.29144L11.7844 4.29555C11.8773 4.2019 11.9877 4.12757 12.1094 4.07684C12.2311 4.02612 12.3616 4 12.4934 4C12.6252 4 12.7558 4.02612 12.8775 4.07684C12.9991 4.12757 13.1096 4.2019 13.2024 4.29555C13.295 4.38892 13.3682 4.49964 13.4179 4.62138C13.4676 4.74312 13.4928 4.87347 13.492 5.00497Z" fill="white"/>
</svg>
