<svg width="20" height="20" viewBox="0 0 20 20" fill="none" xmlns="http://www.w3.org/2000/svg">
<path d="M6.50018 5.00497C6.49942 5.13647 6.52461 5.26682 6.5743 5.38856C6.624 5.5103 6.69722 5.62102 6.78977 5.71438L11.0837 10.0009L6.78977 14.2873C6.60173 14.4755 6.49609 14.7307 6.49609 14.9967C6.49609 15.2628 6.60173 15.518 6.78977 15.7062C6.97781 15.8943 7.23284 16 7.49877 16C7.76469 16 8.01973 15.8943 8.20777 15.7062L13.2007 10.7103C13.2943 10.6174 13.3686 10.5069 13.4193 10.3851C13.47 10.2634 13.4961 10.1328 13.4961 10.0009C13.4961 9.86895 13.47 9.73835 13.4193 9.61659C13.3686 9.49483 13.2943 9.38432 13.2007 9.29144L8.20777 4.29555C8.11493 4.2019 8.00449 4.12757 7.8828 4.07684C7.76111 4.02612 7.63059 4 7.49877 4C7.36694 4 7.23642 4.02612 7.11473 4.07684C6.99305 4.12757 6.8826 4.2019 6.78977 4.29555C6.69722 4.38892 6.624 4.49964 6.5743 4.62138C6.52461 4.74312 6.49942 4.87347 6.50018 5.00497Z" fill="white"/>
</svg>
